<?xml version="1.0" encoding="UTF-8"?>
<svg width="41px" height="40px" viewBox="0 0 41 40" version="1.1" xmlns="http://www.w3.org/2000/svg" xmlns:xlink="http://www.w3.org/1999/xlink">
    <!-- Generator: Sketch 52.2 (67145) - http://www.bohemiancoding.com/sketch -->
    <title>estrella</title>
    <desc>Created with Sketch.</desc>
    <g id="Page-1" stroke="none" stroke-width="1" fill="none" fill-rule="evenodd">
        <g id="tgr-logo">
            <g id="estrella" transform="translate(20.710632, 20.116702) scale(-1, 1) rotate(-180.000000) translate(-20.710632, -20.116702) translate(0.104883, 0.558702)">
                <g id="est_sup" transform="translate(15.688275, 23.930784)" fill="#DF2A33">
                    <path d="M5.58799988,14.6684997 C5.50278288,14.9360252 5.12629139,14.9360252 5.03967739,14.6698967 L1.21084972,3.17817493 L0.268223994,0.342963492 L10.528141,0.342963492 L5.58799988,14.6684997 Z" id="pe0"></path>
                </g>
                <g id="est_inf" transform="translate(22.791286, 0.208397)" fill="#DF2A33">
                    <path d="M0.349249992,7.68349983 L11.107896,0.143890997 C11.3240818,-0.0129222497 11.6167532,0.200469496 11.5332825,0.45507274 L7.30980234,12.7462277 C7.25112834,12.9264407 7.03214859,12.995243 6.8819711,12.8841815 L0.347852992,8.12949207 C0.196976996,8.01912907 0.198373996,7.79316433 0.349249992,7.68349983" id="pe1"></path>
                </g>
                <g id="est_centro" transform="translate(0.163693, 0.213846)" fill="#0C2D65">
                    <path d="M12.5729997,15.0177497 L0.46380399,23.541545 C0.238886995,23.7046447 0.354837992,24.0601812 0.632491736,24.0601812 L40.4550236,24.0601812 C40.7340744,24.0601812 40.8493268,23.7046447 40.6233621,23.541545 L8.40644731,0.134461247 C8.18222882,-0.0286384994 7.87977833,0.191738246 7.96464607,0.45507274 L12.676727,14.6971382 C12.7154937,14.8137877 12.672536,14.9433594 12.5729997,15.0177497" id="pe2"></path>
                </g>
            </g>
        </g>
    </g>
</svg>