<?xml version="1.0" encoding="UTF-8" standalone="no"?> <!-- Created with Inkscape (http://www.inkscape.org/) -->
<svg  xmlns="http://www.w3.org/2000/svg" viewBox="-23 118.7 144 56" version="1.1" id="svg8" preserveAspectRatio="xMinYMin meet">
  <style>.b{fill:#0c2d65;fill-opacity:1;fill-rule:nonzero;stroke:none;} .r{fill:#df2a33;fill-opacity:1;fill-rule:nonzero;stroke:none;} </style>
  <g id="logo_h" transform="translate(0,0)"><g transform="matrix(.99,0,0,.99,0,1.8)">
    <g id="estrella" transform="matrix(0.35277777,0,0,-0.35277777,-116.21148,293.97419)"><g transform="translate(321.9199,497.5205)" id="est_sup" class="r"><path id="pe0" d="M 0,0 C -0.244,0.766 -1.322,0.766 -1.57,0.004 L -12.533,-32.9 -15.232,-41.018 H 14.145 Z" /></g>
      <g transform="translate(327.2578,409.5967)" id="est_inf" class="r"><path id="pe1" d="m 0,0 30.805,-21.588 c 0.619,-0.449 1.457,0.162 1.218,0.891 L 19.93,14.496 c -0.168,0.516 -0.795,0.713 -1.225,0.395 L -0.004,1.277 C -0.436,0.961 -0.432,0.314 0,0" /></g><g transform="translate(297.4687,430.6123)" id="est_centro" class="b"><path id="pe2" d="m 0,0 -34.672,24.406 c -0.644,0.467 -0.312,1.485 0.483,1.485 H 79.834 c 0.799,0 1.129,-1.018 0.482,-1.485 L -11.93,-42.615 c -0.642,-0.467 -1.508,0.164 -1.265,0.918 L 0.297,-0.918 C 0.408,-0.584 0.285,-0.213 0,0" /></g></g>
    <g id="TGR" class="b">
      <g transform="matrix(0.35277777,0,0,-0.35277777,97.005464,153.34575)" id="R"><path id="pt0" d="m 0,0 c -0.041,-0.479 0.334,-0.895 0.816,-0.895 h 20.76 c 12.051,0 19.617,6.192 20.686,17.75 1.033,11.237 -5.416,17.26 -17.465,17.26 H 3.887 c -0.422,0 -0.776,-0.324 -0.815,-0.742 z m 35.738,-58.111 c -0.322,0 -0.611,0.189 -0.744,0.482 L 19.875,-24.664 H 19.227 -1.518 c -0.425,0 -0.779,-0.322 -0.812,-0.744 l -2.777,-31.955 c -0.038,-0.426 -0.391,-0.748 -0.817,-0.748 h -28.148 c -0.483,0 -0.86,0.412 -0.817,0.89 l 10.356,114.366 c 0.037,0.421 0.39,0.744 0.812,0.744 H 26.82 c 30.284,0 46.201,-14.657 43.865,-40.055 C 69.12,0.861 61.04,-11.699 47.631,-18.619 c -0.383,-0.197 -0.551,-0.652 -0.375,-1.047 l 16.61,-37.295 c 0.238,-0.539 -0.156,-1.15 -0.75,-1.15 z" /></g><g transform="matrix(0.35277777,0,0,-0.35277777,60.995285,157.46468)" id="G"><path id="pt1" d="m 0,0 h 37.895 c 0.48,0 0.857,-0.412 0.816,-0.893 L 37.4,-15.139 c -0.027,-0.295 -0.209,-0.552 -0.472,-0.674 -6.992,-3.285 -14.133,-5.154 -19.694,-5.154 -18.494,0 -31.15,14.119 -29.437,32.774 1.703,18.496 16.793,32.611 35.127,32.611 10.051,0 16.17,-0.85 23.471,-8.135 0.293,-0.291 0.605,-0.314 0.931,-0.06 L 69.357,52.23 c 0.397,0.313 0.493,0.983 0.123,1.325 -10.935,10.041 -27.63,16.009 -44.082,16.009 -36.015,0 -65.056,-24.66 -68.097,-57.757 -3.049,-33.098 20.881,-55.397 55.492,-58.08 16.723,-1.297 35.982,5.345 48.418,14.38 0.193,0.141 0.31,0.354 0.334,0.592 L 64.426,0 66.234,18.09 c 0.049,0.482 -0.328,0.902 -0.814,0.902 H 23.891 c -0.18,0 -0.438,-0.123 -0.579,-0.232 L -0.502,1.473 C -1.123,0.998 -0.785,0 0,0" /></g><g transform="matrix(0.35277777,0,0,-0.35277777,57.065094,132.93908)" id="T"><path id="pt2" d="m 0,0 h -100.957 c -0.18,0 -0.43,-0.053 -0.574,-0.16 l -32.11,-23.324 c -0.656,-0.479 -0.379,-1.627 0.434,-1.627 h 44.473 c 0.498,0 0.884,-0.428 0.834,-0.924 l -8.883,-89.039 c -0.047,-0.496 0.34,-0.926 0.838,-0.926 h 28.924 c 0.433,0 0.791,0.328 0.837,0.758 l 9.094,89.375 c 0.043,0.43 0.402,0.756 0.836,0.756 h 23.502 c 0.461,0 0.879,0.199 1.027,0.308 L 0.357,-1.516 C 0.996,-1.031 0.809,0 0,0" /></g></g>
  
  </g></g>
</svg>
