<?xml version="1.0" encoding="UTF-8"?>
<svg width="112px" height="41px" viewBox="0 0 112 41" version="1.1" xmlns="http://www.w3.org/2000/svg" xmlns:xlink="http://www.w3.org/1999/xlink">
    <!-- Generator: Sketch 52.2 (67145) - http://www.bohemiancoding.com/sketch -->
    <title>tgr-logo</title>
    <desc>Created with Sketch.</desc>
    <g id="Page-1" stroke="none" stroke-width="1" fill="none" fill-rule="evenodd">
        <g id="tgr-logo" transform="translate(-33.000000, -15.000000)" fill="#0C2D65">
            <g id="TGR" transform="translate(32.910000, 14.480000)">
                <g id="R" transform="translate(93.411909, 21.306917) scale(-1, 1) rotate(-180.000000) translate(-93.411909, -21.306917) translate(74.901660, 0.875793)" fill-rule="nonzero">
                    <path d="M12.2237497,20.6057495 C12.2094305,20.4384588 12.3403992,20.2931708 12.5087377,20.2931708 L19.7591676,20.2931708 C23.9679792,20.2931708 26.6104047,22.4557268 26.9837529,26.4923582 C27.3445281,30.4168803 25.0922149,32.520413 20.8841018,32.520413 L13.5812845,32.520413 C13.433901,32.520413 13.3102665,32.407256 13.2966457,32.2612695 L12.2237497,20.6057495 Z M24.705246,0.310483243 C24.5927875,0.310483243 24.4918542,0.376491492 24.445404,0.478821739 L19.1650933,11.9918477 L18.9387793,11.9918477 L11.6935882,11.9918477 C11.545157,11.9918477 11.4215225,11.8793892 11.4099972,11.7320057 L10.44013,0.571722237 C10.4268585,0.422941741 10.3035733,0.310483243 10.1547928,0.310483243 L0.324103993,0.310483243 C0.155416247,0.310483243 0.0237489995,0.45437424 0.0387667491,0.621315736 L3.65559967,40.5636404 C3.66852192,40.7106746 3.79180717,40.8234823 3.93919066,40.8234823 L21.5906345,40.8234823 C32.1673213,40.8234823 37.7263334,35.7045252 36.9104854,26.8342739 C36.3639092,20.9064538 33.5419693,16.5198739 28.8588761,14.1030639 C28.7251134,14.0342617 28.6664394,13.8753529 28.7279074,13.7373992 L34.5289497,0.712120734 C34.6120712,0.523874988 34.4744667,0.310483243 34.2670122,0.310483243 L24.705246,0.310483243 Z" id="pt0"></path>
                </g>
                <g id="G" transform="translate(56.190207, 21.193658) scale(-1, 1) rotate(-180.000000) translate(-56.190207, -21.193658) translate(36.457582, 0.762534)">
                    <path d="M15.0177497,16.4147496 L28.2525781,16.4147496 C28.4202181,16.4147496 28.5518854,16.2708586 28.5375661,16.1028694 L28.0796994,11.127454 C28.0702696,11.0244253 28.0067061,10.934668 27.9148534,10.8920595 C25.4728974,9.74477329 22.9789032,9.09202505 21.036724,9.09202505 C14.5776947,9.09202505 10.1575868,14.0230857 10.755852,20.5383443 C11.3506247,26.9980722 16.6208071,31.9277358 23.0239565,31.9277358 C26.5342682,31.9277358 28.6713289,31.6308733 31.2212031,29.0865871 C31.3235333,28.9849554 31.4324993,28.9769226 31.5463548,29.0656321 L39.2406814,34.6560767 C39.3793336,34.765392 39.4128616,34.9993895 39.2836391,35.118833 C35.4645905,38.6256521 29.6338618,40.7099761 23.888001,40.7099761 C11.3097625,40.7099761 1.16719347,32.0974713 0.105124248,20.5383443 C-0.959738979,8.97886805 7.39781334,1.19094247 19.4857048,0.253904744 C25.3262124,-0.199072496 32.052418,2.12064595 36.3956909,5.27611963 C36.4630962,5.32536388 36.5039584,5.39975413 36.5123404,5.48287563 L37.5185297,16.4147496 L38.1499737,22.732682 C38.1670869,22.9010205 38.0354197,23.0477055 37.8656842,23.0477055 L23.3616812,23.0477055 C23.2988162,23.0477055 23.2087097,23.0047477 23.1594655,22.9666795 L14.8424262,16.9291949 C14.6255419,16.7633011 14.7435884,16.4147496 15.0177497,16.4147496" id="pt1"></path>
                </g>
                <g id="T" transform="translate(24.184694, 21.186189) scale(-1, 1) rotate(-180.000000) translate(-24.184694, -21.186189) translate(0.435694, 0.929689)">
                    <path d="M47.148749,40.5129991 L11.8895175,40.5129991 C11.8266525,40.5129991 11.73934,40.4944889 11.689048,40.4571191 L0.47463074,32.3112123 C0.245522745,32.1439215 0.342264992,31.7429826 0.626205236,31.7429826 L16.1584001,31.7429826 C16.3323266,31.7429826 16.4671371,31.5935036 16.4496746,31.4202756 L13.347287,0.323405493 C13.3308722,0.150177497 13.466032,0 13.6399584,0 L23.7416652,0 C23.8928905,0 24.017922,0.114553997 24.0339875,0.264731494 L27.2100669,31.4789496 C27.2250846,31.6291271 27.3504654,31.7429826 27.5020399,31.7429826 L35.7101132,31.7429826 C35.8711175,31.7429826 36.017104,31.8124833 36.068793,31.8505515 L47.2734312,39.9835361 C47.496602,40.1529224 47.4312922,40.5129991 47.148749,40.5129991" id="pt2"></path>
                </g>
            </g>
        </g>
    </g>
</svg>