<?xml version="1.0" encoding="UTF-8" standalone="no"?>
<!-- Created with Inkscape (http://www.inkscape.org/) -->

<svg
   xmlns:dc="http://purl.org/dc/elements/1.1/"
   xmlns:cc="http://creativecommons.org/ns#"
   xmlns:rdf="http://www.w3.org/1999/02/22-rdf-syntax-ns#"
   xmlns:svg="http://www.w3.org/2000/svg"
   xmlns="http://www.w3.org/2000/svg"
   xmlns:sodipodi="http://sodipodi.sourceforge.net/DTD/sodipodi-0.dtd"
   xmlns:inkscape="http://www.inkscape.org/namespaces/inkscape"
   width="261.17975mm"
   height="58.128532mm"
   viewBox="0 0 261.17975 58.128532"
   version="1.1"
   id="svg8"
   inkscape:version="0.92.1 r15371"
   sodipodi:docname="TGR_logo_nuevo_h.svg">
  <defs
     id="defs2">
    <clipPath
       clipPathUnits="userSpaceOnUse"
       id="clipPath22">
      <path
         d="M 0,820.346 H 1252.345 V 0 H 0 Z"
         id="path20"
         inkscape:connector-curvature="0" />
    </clipPath>
  </defs>
  <sodipodi:namedview
     id="base"
     pagecolor="#ffffff"
     bordercolor="#666666"
     borderopacity="1.0"
     inkscape:pageopacity="0.0"
     inkscape:pageshadow="2"
     inkscape:zoom="0.35"
     inkscape:cx="1160.7109"
     inkscape:cy="-487.29365"
     inkscape:document-units="mm"
     inkscape:current-layer="layer1"
     showgrid="false"
     fit-margin-top="0"
     fit-margin-left="0"
     fit-margin-right="0"
     fit-margin-bottom="0"
     inkscape:window-width="1600"
     inkscape:window-height="837"
     inkscape:window-x="-8"
     inkscape:window-y="-8"
     inkscape:window-maximized="1" />
  <metadata
     id="metadata5">
    <rdf:RDF>
      <cc:Work
         rdf:about="">
        <dc:format>image/svg+xml</dc:format>
        <dc:type
           rdf:resource="http://purl.org/dc/dcmitype/StillImage" />
        <dc:title></dc:title>
      </cc:Work>
    </rdf:RDF>
  </metadata>
  <g
     inkscape:label="Capa 1"
     inkscape:groupmode="layer"
     id="layer1"
     transform="translate(340.74464,38.22498)">
    <g
       id="g10"
       transform="matrix(0.35277777,0,0,-0.35277777,-433.33351,137.49204)">
      <g
         id="g12"
         transform="translate(715.4727,429.3818)">
        <path
           d="m 0,0 v 22.982 h -8.403 v 4.114 h 21.09 V 22.982 H 4.243 V 0 Z"
           style="fill:#0c2d65;fill-opacity:1;fill-rule:nonzero;stroke:none"
           id="path14"
           inkscape:connector-curvature="0" />
      </g>
      <g
         id="g16">
        <g
           id="g18"
           clip-path="url(#clipPath22)">
          <g
             id="g24"
             transform="translate(747.9873,440.4443)">
            <path
               d="m 0,0 c -0.185,3.729 -2.702,6.084 -6.501,6.084 -3.68,0 -6.336,-2.39 -6.78,-6.084 z m 2.571,-2.355 h -15.852 c 0.524,-3.799 3.285,-6.213 7.048,-6.213 2.386,0 4.504,0.868 6.015,2.451 L 1.36,-7.83 c -1.845,-2.051 -4.568,-3.233 -7.818,-3.233 -5.721,0 -9.655,4.005 -9.655,9.801 0,5.799 3.974,9.8 9.612,9.8 6.283,0.048 9.374,-4.304 9.072,-10.893"
               style="fill:#0c2d65;fill-opacity:1;fill-rule:nonzero;stroke:none"
               id="path26"
               inkscape:connector-curvature="0" />
          </g>
          <g
             id="g28"
             transform="translate(772.0293,447.2666)">
            <path
               d="m 0,0 -1.107,-2.285 c -1.513,0.939 -3.463,1.578 -5.276,1.578 -2.176,0 -3.832,-0.773 -3.832,-2.59 0,-4.299 10.84,-2.084 10.84,-9.069 0,-3.829 -3.394,-5.519 -7.109,-5.519 -2.775,0 -5.612,0.948 -7.46,2.73 l 1.109,2.178 c 1.661,-1.545 4.166,-2.484 6.452,-2.484 2.285,0 4.134,0.846 4.168,2.757 0.113,4.706 -10.766,2.29 -10.724,9.202 0,3.705 3.198,5.266 6.74,5.266 C -3.865,1.764 -1.622,1.109 0,0"
               style="fill:#0c2d65;fill-opacity:1;fill-rule:nonzero;stroke:none"
               id="path30"
               inkscape:connector-curvature="0" />
          </g>
          <g
             id="g32"
             transform="translate(783.4551,439.1826)">
            <path
               d="m 0,0 c 0,-4.282 2.922,-7.215 6.972,-7.215 4.051,0 6.973,2.933 6.973,7.215 0,4.251 -2.922,7.209 -6.973,7.209 C 2.922,7.209 0,4.251 0,0 m 16.818,0.045 c 0,-5.841 -4.084,-9.846 -9.846,-9.846 -5.753,0 -9.848,4.005 -9.848,9.846 0,5.786 4.095,9.755 9.848,9.755 5.762,0 9.846,-3.969 9.846,-9.755"
               style="fill:#0c2d65;fill-opacity:1;fill-rule:nonzero;stroke:none"
               id="path34"
               inkscape:connector-curvature="0" />
          </g>
          <g
             id="g36"
             transform="translate(813.3604,444.5049)">
            <path
               d="M 0,0 C 1.293,2.822 3.696,4.372 6.974,4.418 V 1.512 C 2.889,1.58 0.336,-0.973 0,-4.805 V -15.123 H -2.871 V 4.303 H 0 Z"
               style="fill:#0c2d65;fill-opacity:1;fill-rule:nonzero;stroke:none"
               id="path38"
               inkscape:connector-curvature="0" />
          </g>
          <g
             id="g40"
             transform="translate(843.5371,440.4443)">
            <path
               d="m 0,0 c -0.186,3.729 -2.689,6.084 -6.491,6.084 -3.691,0 -6.347,-2.39 -6.783,-6.084 z m 2.572,-2.355 h -15.846 c 0.503,-3.799 3.277,-6.213 7.04,-6.213 2.397,0 4.502,0.868 6.01,2.451 L 1.36,-7.83 c -1.848,-2.051 -4.57,-3.233 -7.812,-3.233 -5.722,0 -9.666,4.005 -9.666,9.801 0,5.799 3.985,9.8 9.627,9.8 6.267,0.048 9.365,-4.304 9.063,-10.893"
               style="fill:#0c2d65;fill-opacity:1;fill-rule:nonzero;stroke:none"
               id="path42"
               inkscape:connector-curvature="0" />
          </g>
          <g
             id="g44"
             transform="translate(859.0937,444.5049)">
            <path
               d="M 0,0 C 1.294,2.822 3.691,4.372 6.972,4.418 V 1.512 C 2.873,1.58 0.334,-0.973 0,-4.805 V -15.123 H -2.872 V 4.303 H 0 Z"
               style="fill:#0c2d65;fill-opacity:1;fill-rule:nonzero;stroke:none"
               id="path46"
               inkscape:connector-curvature="0" />
          </g>
          <path
             d="m 875.101,448.808 h 2.844 v -19.426 h -2.844 z"
             style="fill:#0c2d65;fill-opacity:1;fill-rule:nonzero;stroke:none"
             id="path48"
             inkscape:connector-curvature="0" />
          <g
             id="g50"
             transform="translate(902.1289,436.2617)">
            <path
               d="m 0,0 v 2.326 h -6.042 c -3.254,0 -4.952,-1.009 -4.952,-3.157 0,-2.12 1.73,-3.53 4.467,-3.53 3.278,0 5.798,1.677 6.527,4.361 m 0.043,-3.725 c -1.559,-2.113 -4.03,-3.155 -7.123,-3.155 -4.018,0 -6.604,2.596 -6.604,5.944 0,3.397 2.69,5.549 7.273,5.581 h 6.37 v 1.141 c 0,2.856 -1.765,4.539 -5.191,4.539 -2.149,0 -4.134,-0.808 -6.165,-2.219 l -1.21,2.115 c 2.503,1.649 4.605,2.607 7.926,2.607 4.792,0 7.447,-2.536 7.481,-6.705 L 2.835,-6.715 H 0.043 Z"
               style="fill:#0c2d65;fill-opacity:1;fill-rule:nonzero;stroke:none"
               id="path52"
               inkscape:connector-curvature="0" />
          </g>
          <g
             id="g54"
             transform="translate(877.3086,451.4678)">
            <path
               d="M 0,0 H -2.757 L 1.662,5.01 4.566,3.6 Z"
               style="fill:#0c2d65;fill-opacity:1;fill-rule:nonzero;stroke:none"
               id="path56"
               inkscape:connector-curvature="0" />
          </g>
          <g
             id="g58"
             transform="translate(717.6309,352.876)">
            <path
               d="M 0,0 C 3.086,0 6.759,0.95 6.759,5.494 6.759,9.892 3.086,10.815 0,10.815 H -6.292 V 0 Z M 6.789,-12.396 1.41,-4.105 C 0.949,-4.137 0.475,-4.163 0,-4.163 h -6.292 v -8.233 h -4.27 V 14.967 H 0 c 6.937,0 10.916,-3.429 10.916,-9.404 0,-4.248 -1.895,-7.273 -5.482,-8.768 l 6.338,-9.191 z"
               style="fill:#0c2d65;fill-opacity:1;fill-rule:nonzero;stroke:none"
               id="path60"
               inkscape:connector-curvature="0" />
          </g>
          <g
             id="g62"
             transform="translate(753.5137,351.4346)">
            <path
               d="m 0,0 c -0.184,3.727 -2.687,6.081 -6.495,6.081 -3.685,0 -6.34,-2.388 -6.778,-6.081 z m 2.572,-2.355 h -15.845 c 0.504,-3.798 3.276,-6.201 7.043,-6.201 2.394,0 4.5,0.857 6.006,2.439 l 1.588,-1.712 c -1.848,-2.051 -4.572,-3.229 -7.813,-3.229 -5.727,0 -9.67,4.015 -9.67,9.809 0,5.783 3.989,9.806 9.624,9.806 6.271,0.042 9.369,-4.323 9.067,-10.912"
               style="fill:#0c2d65;fill-opacity:1;fill-rule:nonzero;stroke:none"
               id="path64"
               inkscape:connector-curvature="0" />
          </g>
          <g
             id="g66"
             transform="translate(783.1543,350.2227)">
            <path
               d="m 0,0 c 0,4.166 -2.873,7.225 -6.924,7.225 -4.099,0 -6.973,-3.024 -6.973,-7.225 0,-4.236 2.874,-7.225 6.973,-7.225 C -2.873,-7.225 0,-4.199 0,0 m 2.922,-0.081 c 0,-5.75 -3.763,-9.765 -9.258,-9.765 -3.467,0 -6.124,1.581 -7.561,4.269 v -11.324 h -2.874 V 9.682 h 2.874 V 5.483 c 1.437,2.72 4.094,4.328 7.477,4.328 5.51,0 9.342,-4.065 9.342,-9.892"
               style="fill:#0c2d65;fill-opacity:1;fill-rule:nonzero;stroke:none"
               id="path68"
               inkscape:connector-curvature="0" />
          </g>
          <g
             id="g70"
             transform="translate(813.1445,340.4805)">
            <path
               d="m 0,0 h -2.875 v 4.39 c -1.296,-3.021 -3.88,-4.458 -7.376,-4.494 -4.536,0 -7.274,2.86 -7.274,7.561 v 11.967 h 2.886 V 8.231 c 0,-3.43 2.02,-5.475 5.379,-5.475 4.018,0.08 6.385,2.989 6.385,7.122 v 9.546 H 0 Z"
               style="fill:#0c2d65;fill-opacity:1;fill-rule:nonzero;stroke:none"
               id="path72"
               inkscape:connector-curvature="0" />
          </g>
          <g
             id="g74"
             transform="translate(842.2754,350.2227)">
            <path
               d="m 0,0 c 0,4.166 -2.873,7.225 -6.937,7.225 -4.094,0 -6.975,-3.024 -6.975,-7.225 0,-4.236 2.881,-7.225 6.975,-7.225 C -2.873,-7.225 0,-4.199 0,0 m 2.905,-0.081 c 0,-5.75 -3.761,-9.765 -9.255,-9.765 -3.463,0 -6.116,1.581 -7.562,4.269 v -4.165 h -2.872 V 17.62 h 2.872 V 5.483 c 1.446,2.72 4.099,4.328 7.493,4.328 5.496,0 9.324,-4.065 9.324,-9.892"
               style="fill:#0c2d65;fill-opacity:1;fill-rule:nonzero;stroke:none"
               id="path76"
               inkscape:connector-curvature="0" />
          </g>
          <path
             d="m 855.583,367.843 h 2.873 v -27.362 h -2.873 z"
             style="fill:#0c2d65;fill-opacity:1;fill-rule:nonzero;stroke:none"
             id="path78"
             inkscape:connector-curvature="0" />
          <path
             d="m 870.82,359.904 h 2.839 V 340.48 h -2.839 z m 3.278,5.577 c 0,-1.145 -0.807,-1.983 -1.882,-1.983 -1.072,0 -1.881,0.838 -1.881,1.983 0,1.142 0.809,1.982 1.881,1.982 1.075,0 1.882,-0.84 1.882,-1.982"
             style="fill:#0c2d65;fill-opacity:1;fill-rule:nonzero;stroke:none"
             id="path80"
             inkscape:connector-curvature="0" />
          <g
             id="g82"
             transform="translate(900.9795,357.1133)">
            <path
               d="m 0,0 -1.577,-2.019 c -1.48,1.384 -3.435,2.249 -5.798,2.249 -4.019,0 -6.891,-2.919 -6.891,-7.158 0,-4.234 2.872,-7.187 6.891,-7.187 2.552,0 4.652,0.875 6.016,2.486 l 1.661,-1.749 c -1.738,-2.116 -4.436,-3.358 -7.779,-3.358 -5.645,0 -9.629,4.014 -9.629,9.808 0,5.783 4.017,9.806 9.629,9.806 C -4.352,2.92 -1.764,1.848 0,0"
               style="fill:#0c2d65;fill-opacity:1;fill-rule:nonzero;stroke:none"
               id="path84"
               inkscape:connector-curvature="0" />
          </g>
          <g
             id="g86"
             transform="translate(922.6299,347.1982)">
            <path
               d="m 0,0 v 2.319 h -6.045 c -3.256,0 -4.952,-1.007 -4.952,-3.132 0,-2.143 1.735,-3.553 4.467,-3.553 3.278,0 5.796,1.678 6.53,4.366 m 0.041,-3.732 c -1.552,-2.101 -4.031,-3.13 -7.125,-3.13 -4.016,0 -6.602,2.591 -6.602,5.924 0,3.398 2.689,5.542 7.275,5.578 h 6.366 v 1.142 c 0,2.853 -1.762,4.535 -5.191,4.535 -2.148,0 -4.133,-0.806 -6.166,-2.217 l -1.211,2.118 c 2.505,1.646 4.607,2.617 7.93,2.617 4.791,0 7.446,-2.549 7.479,-6.717 L 2.832,-6.718 H 0.041 Z"
               style="fill:#0c2d65;fill-opacity:1;fill-rule:nonzero;stroke:none"
               id="path88"
               inkscape:connector-curvature="0" />
          </g>
          <g
             id="g90"
             transform="translate(802.9453,362.833)">
            <path
               d="M 0,0 4.438,5.01 7.346,3.597 2.774,0 Z"
               style="fill:#0c2d65;fill-opacity:1;fill-rule:nonzero;stroke:none"
               id="path92"
               inkscape:connector-curvature="0" />
          </g>
          <g
             id="g94"
             transform="translate(753.8262,395.833)">
            <path
               d="m 0,0 c -0.186,3.727 -2.691,6.078 -6.489,6.078 -3.695,0 -6.348,-2.389 -6.787,-6.078 z m 2.586,-2.357 h -15.862 c 0.52,-3.799 3.277,-6.213 7.038,-6.213 2.405,0 4.507,0.867 6.018,2.453 L 1.36,-7.83 c -1.834,-2.051 -4.572,-3.236 -7.814,-3.236 -5.711,0 -9.663,4.007 -9.663,9.804 0,5.797 3.982,9.799 9.628,9.799 6.269,0.047 9.361,-4.305 9.075,-10.894"
               style="fill:#0c2d65;fill-opacity:1;fill-rule:nonzero;stroke:none"
               id="path96"
               inkscape:connector-curvature="0" />
          </g>
          <g
             id="g98"
             transform="translate(784.2861,396.751)">
            <path
               d="m 0,0 v -11.984 h -2.875 v 11.205 c 0,3.445 -2.064,5.466 -5.493,5.466 -3.833,-0.037 -6.198,-2.554 -6.534,-6.251 v -10.42 h -2.876 V 7.441 h 2.876 V 3.176 c 1.375,2.953 3.98,4.338 7.524,4.385 C -2.724,7.561 0,4.687 0,0"
               style="fill:#0c2d65;fill-opacity:1;fill-rule:nonzero;stroke:none"
               id="path100"
               inkscape:connector-curvature="0" />
          </g>
          <g
             id="g102"
             transform="translate(810.0244,395.833)">
            <path
               d="m 0,0 c -0.185,3.727 -2.689,6.078 -6.486,6.078 -3.698,0 -6.348,-2.389 -6.789,-6.078 z m 2.587,-2.357 h -15.862 c 0.519,-3.799 3.28,-6.213 7.041,-6.213 2.403,0 4.505,0.867 6.013,2.453 L 1.362,-7.83 c -1.835,-2.051 -4.57,-3.236 -7.814,-3.236 -5.713,0 -9.663,4.007 -9.663,9.804 0,5.797 3.982,9.799 9.629,9.799 6.265,0.047 9.359,-4.305 9.073,-10.894"
               style="fill:#0c2d65;fill-opacity:1;fill-rule:nonzero;stroke:none"
               id="path104"
               inkscape:connector-curvature="0" />
          </g>
          <g
             id="g106"
             transform="translate(825.5811,399.8916)">
            <path
               d="M 0,0 C 1.293,2.824 3.697,4.373 6.975,4.42 V 1.51 C 2.891,1.58 0.336,-0.973 0,-4.805 v -10.32 H -2.871 V 4.301 H 0 Z"
               style="fill:#0c2d65;fill-opacity:1;fill-rule:nonzero;stroke:none"
               id="path108"
               inkscape:connector-curvature="0" />
          </g>
          <g
             id="g110"
             transform="translate(852.6982,391.6455)">
            <path
               d="m 0,0 v 2.328 h -6.046 c -3.258,0 -4.944,-1.008 -4.944,-3.158 0,-2.121 1.732,-3.527 4.456,-3.527 3.278,0 5.794,1.675 6.534,4.357 m 0.035,-3.723 c -1.547,-2.113 -4.019,-3.156 -7.124,-3.156 -4.016,0 -6.602,2.598 -6.602,5.947 0,3.397 2.701,5.545 7.274,5.58 h 6.374 v 1.141 c 0,2.854 -1.77,4.537 -5.197,4.537 -2.135,0 -4.133,-0.805 -6.164,-2.217 l -1.213,2.114 c 2.507,1.648 4.604,2.607 7.929,2.607 4.791,0 7.446,-2.537 7.482,-6.705 L 2.842,-6.711 H 0.035 Z"
               style="fill:#0c2d65;fill-opacity:1;fill-rule:nonzero;stroke:none"
               id="path112"
               inkscape:connector-curvature="0" />
          </g>
          <path
             d="m 867.298,412.099 h 2.875 v -27.332 h -2.875 z"
             style="fill:#0c2d65;fill-opacity:1;fill-rule:nonzero;stroke:none"
             id="path114"
             inkscape:connector-curvature="0" />
          <g
             id="g116"
             transform="translate(718.1719,384.7666)">
            <path
               d="m 0,0 c -7.775,0 -14.103,6.156 -14.103,13.713 0,7.637 6.261,13.619 14.253,13.619 3.661,0 7.281,-1.35 9.937,-3.691 L 10.536,23.24 8.052,19.996 7.533,20.465 c -2.005,1.793 -4.696,2.824 -7.383,2.824 -5.509,0 -9.991,-4.295 -9.991,-9.576 0,-5.293 4.497,-9.604 10.025,-9.604 2.058,0 4.29,0.684 6.143,1.885 v 4.418 h -7.389 v 3.645 L 10.221,14.055 V 3.758 L 9.981,3.568 C 7.213,1.334 3.481,0 0,0"
               style="fill:#0c2d65;fill-opacity:1;fill-rule:nonzero;stroke:none"
               id="path118"
               inkscape:connector-curvature="0" />
          </g>
          <g
             id="g120"
             transform="translate(915.1904,394.5732)">
            <path
               d="m 0,0 c 0,4.246 -2.921,7.307 -7.005,7.307 -4.136,0 -7.041,-3.061 -7.041,-7.307 0,-4.189 2.905,-7.215 7.041,-7.215 C -2.921,-7.215 0,-4.189 0,0 M 2.873,-9.66 H 0 v 4.164 c -1.441,-2.725 -4.098,-4.311 -7.56,-4.311 -5.541,0 -9.376,4.106 -9.376,9.887 0,5.815 3.835,9.848 9.34,9.848 3.463,0 6.155,-1.592 7.596,-4.366 v 12.139 h 2.873 z"
               style="fill:#0c2d65;fill-opacity:1;fill-rule:nonzero;stroke:none"
               id="path122"
               inkscape:connector-curvature="0" />
          </g>
          <g
             id="g124"
             transform="translate(944.5762,395.8271)">
            <path
               d="m 0,0 c -0.185,3.727 -2.688,6.078 -6.485,6.078 -3.684,0 -6.346,-2.387 -6.788,-6.078 z m 2.587,-2.355 h -15.86 c 0.519,-3.797 3.275,-6.202 7.041,-6.202 2.403,0 4.502,0.86 6.011,2.44 l 1.584,-1.709 c -1.845,-2.053 -4.573,-3.235 -7.813,-3.235 -5.715,0 -9.664,4.02 -9.664,9.813 0,5.783 3.984,9.803 9.629,9.803 6.264,0.043 9.36,-4.321 9.072,-10.91"
               style="fill:#0c2d65;fill-opacity:1;fill-rule:nonzero;stroke:none"
               id="path126"
               inkscape:connector-curvature="0" />
          </g>
          <path
             d="m 972.716,412.128 h 2.873 v -27.361 h -2.873 z"
             style="fill:#0c2d65;fill-opacity:1;fill-rule:nonzero;stroke:none"
             id="path128"
             inkscape:connector-curvature="0" />
          <g
             id="g130"
             transform="translate(999.9697,391.6279)">
            <path
               d="m 0,0 v 2.32 h -6.05 c -3.243,0 -4.938,-1.008 -4.938,-3.134 0,-2.141 1.73,-3.551 4.454,-3.551 3.29,0 5.794,1.677 6.534,4.365 m 0.033,-3.73 c -1.545,-2.102 -4.015,-3.131 -7.121,-3.131 -4.017,0 -6.588,2.591 -6.588,5.924 0,3.398 2.688,5.542 7.259,5.578 h 6.382 v 1.142 c 0,2.852 -1.78,4.535 -5.209,4.535 -2.132,0 -4.129,-0.806 -6.148,-2.216 l -1.227,2.117 c 2.505,1.646 4.622,2.617 7.931,2.617 4.792,0 7.446,-2.551 7.492,-6.717 L 2.839,-6.715 H 0.033 Z"
               style="fill:#0c2d65;fill-opacity:1;fill-rule:nonzero;stroke:none"
               id="path132"
               inkscape:connector-curvature="0" />
          </g>
          <g
             id="g134"
             transform="translate(321.9199,497.5205)">
            <path
               d="M 0,0 C -0.244,0.766 -1.322,0.766 -1.57,0.004 L -12.533,-32.9 -15.232,-41.018 H 14.145 Z"
               style="fill:#df2a33;fill-opacity:1;fill-rule:nonzero;stroke:none"
               id="path136"
               inkscape:connector-curvature="0" />
          </g>
          <g
             id="g138"
             transform="translate(327.2578,409.5967)">
            <path
               d="m 0,0 30.805,-21.588 c 0.619,-0.449 1.457,0.162 1.218,0.891 L 19.93,14.496 c -0.168,0.516 -0.795,0.713 -1.225,0.395 L -0.004,1.277 C -0.436,0.961 -0.432,0.314 0,0"
               style="fill:#df2a33;fill-opacity:1;fill-rule:nonzero;stroke:none"
               id="path140"
               inkscape:connector-curvature="0" />
          </g>
          <g
             id="g142"
             transform="translate(297.4687,430.6123)">
            <path
               d="m 0,0 -34.672,24.406 c -0.644,0.467 -0.312,1.485 0.483,1.485 H 79.834 c 0.799,0 1.129,-1.018 0.482,-1.485 L -11.93,-42.615 c -0.642,-0.467 -1.508,0.164 -1.265,0.918 L 0.297,-0.918 C 0.408,-0.584 0.285,-0.213 0,0"
               style="fill:#0c2d65;fill-opacity:1;fill-rule:nonzero;stroke:none"
               id="path144"
               inkscape:connector-curvature="0" />
          </g>
          <g
             id="g146"
             transform="translate(604.3945,398.6318)">
            <path
               d="m 0,0 c -0.041,-0.479 0.334,-0.895 0.816,-0.895 h 20.76 c 12.051,0 19.617,6.192 20.686,17.75 1.033,11.237 -5.416,17.26 -17.465,17.26 H 3.887 c -0.422,0 -0.776,-0.324 -0.815,-0.742 z m 35.738,-58.111 c -0.322,0 -0.611,0.189 -0.744,0.482 L 19.875,-24.664 H 19.227 -1.518 c -0.425,0 -0.779,-0.322 -0.812,-0.744 l -2.777,-31.955 c -0.038,-0.426 -0.391,-0.748 -0.817,-0.748 h -28.148 c -0.483,0 -0.86,0.412 -0.817,0.89 l 10.356,114.366 c 0.037,0.421 0.39,0.744 0.812,0.744 H 26.82 c 30.284,0 46.201,-14.657 43.865,-40.055 C 69.12,0.861 61.04,-11.699 47.631,-18.619 c -0.383,-0.197 -0.551,-0.652 -0.375,-1.047 l 16.61,-37.295 c 0.238,-0.539 -0.156,-1.15 -0.75,-1.15 z"
               style="fill:#0c2d65;fill-opacity:1;fill-rule:nonzero;stroke:none"
               id="path148"
               inkscape:connector-curvature="0" />
          </g>
          <g
             id="g150"
             transform="translate(502.3184,386.9561)">
            <path
               d="m 0,0 h 37.895 c 0.48,0 0.857,-0.412 0.816,-0.893 L 37.4,-15.139 c -0.027,-0.295 -0.209,-0.552 -0.472,-0.674 -6.992,-3.285 -14.133,-5.154 -19.694,-5.154 -18.494,0 -31.15,14.119 -29.437,32.774 1.703,18.496 16.793,32.611 35.127,32.611 10.051,0 16.17,-0.85 23.471,-8.135 0.293,-0.291 0.605,-0.314 0.931,-0.06 L 69.357,52.23 c 0.397,0.313 0.493,0.983 0.123,1.325 -10.935,10.041 -27.63,16.009 -44.082,16.009 -36.015,0 -65.056,-24.66 -68.097,-57.757 -3.049,-33.098 20.881,-55.397 55.492,-58.08 16.723,-1.297 35.982,5.345 48.418,14.38 0.193,0.141 0.31,0.354 0.334,0.592 L 64.426,0 66.234,18.09 c 0.049,0.482 -0.328,0.902 -0.814,0.902 H 23.891 c -0.18,0 -0.438,-0.123 -0.579,-0.232 L -0.502,1.473 C -1.123,0.998 -0.785,0 0,0"
               style="fill:#0c2d65;fill-opacity:1;fill-rule:nonzero;stroke:none"
               id="path152"
               inkscape:connector-curvature="0" />
          </g>
          <g
             id="g154"
             transform="translate(491.1777,456.4775)">
            <path
               d="m 0,0 h -100.957 c -0.18,0 -0.43,-0.053 -0.574,-0.16 l -32.11,-23.324 c -0.656,-0.479 -0.379,-1.627 0.434,-1.627 h 44.473 c 0.498,0 0.884,-0.428 0.834,-0.924 l -8.883,-89.039 c -0.047,-0.496 0.34,-0.926 0.838,-0.926 h 28.924 c 0.433,0 0.791,0.328 0.837,0.758 l 9.094,89.375 c 0.043,0.43 0.402,0.756 0.836,0.756 h 23.502 c 0.461,0 0.879,0.199 1.027,0.308 L 0.357,-1.516 C 0.996,-1.031 0.809,0 0,0"
               style="fill:#0c2d65;fill-opacity:1;fill-rule:nonzero;stroke:none"
               id="path156"
               inkscape:connector-curvature="0" />
          </g>
        </g>
      </g>
    </g>
  </g>
</svg>
